<svg width="48" height="47" viewBox="0 0 48 47" fill="none" xmlns="http://www.w3.org/2000/svg">
<rect x="0.878906" width="47" height="47" rx="4" fill="#4B4F53"/>
<path d="M19.2868 25.7618C17.8056 25.7618 16.5979 24.4159 16.5979 22.7695C16.5979 21.1216 17.7757 19.7757 19.2883 19.7757C20.7837 19.7757 22.0086 21.1216 21.9787 22.7695C21.9787 24.4159 20.7837 25.7618 19.2868 25.7618ZM29.2195 25.7604C27.7383 25.7604 26.5277 24.4145 26.5277 22.768C26.5277 21.1202 27.7084 19.7743 29.2195 19.7743C30.715 19.7743 31.9398 21.1202 31.9113 22.768C31.9113 24.4145 30.7306 25.7604 29.2195 25.7604ZM21.5727 12.1959L21.1341 11.394L20.2311 11.545C18.1847 11.8862 16.1931 12.4993 14.3091 13.368L13.9844 13.5176L13.7821 13.8167C10.0606 19.3043 9.03941 24.7093 9.54502 30.0174L9.60056 30.5971L10.0706 30.9389C12.2599 32.5453 14.7052 33.7698 17.3029 34.5608L18.428 34.9054L20.0132 31.0372C22.7335 31.7094 25.7529 31.7094 28.4718 31.0372L30.0484 34.9069L31.1736 34.5622C33.7734 33.773 36.22 32.5473 38.4087 30.9375L38.8744 30.5985L38.9314 30.026C39.5524 23.8733 37.9387 18.5138 34.7185 13.8124L34.5163 13.5162L34.1915 13.368C32.308 12.5033 30.3188 11.8903 28.2752 11.545L27.395 11.3983L26.9478 12.1703C26.8225 12.3839 26.6957 12.626 26.5733 12.8724C25.0283 12.7128 23.4709 12.7128 21.926 12.8724C21.8049 12.6303 21.6838 12.3967 21.5727 12.1959ZM16.7161 29.6984C16.9967 29.8608 17.2929 30.0203 17.5849 30.1656L16.9454 31.7265C15.2158 31.0961 13.5748 30.2449 12.0631 29.1942C11.7426 24.725 12.6513 20.2144 15.7148 15.5642C17.0077 14.9948 18.3554 14.5591 19.7369 14.2639C19.8224 14.4419 19.9021 14.6171 19.9676 14.7709L20.3564 15.6867L21.342 15.5429C23.2734 15.2599 25.2358 15.2599 27.1672 15.5429L28.1499 15.6853L28.5373 14.7709C28.6042 14.6114 28.6826 14.4376 28.7652 14.2639C30.1567 14.563 31.504 15.0045 32.7929 15.5671C35.4634 19.5834 36.8107 24.0641 36.419 29.1928C34.9075 30.2458 33.2653 31.0976 31.5339 31.7265L30.9001 30.167C31.1935 30.0217 31.4897 29.8622 31.7732 29.6984C32.471 29.2968 33.2216 28.7954 33.7002 28.3169L31.8771 26.4939C31.645 26.7274 31.1323 27.092 30.4857 27.4652C29.8533 27.8298 29.2252 28.1246 28.8236 28.2571C25.9708 29.2013 22.517 29.2013 19.6628 28.2571C19.2626 28.1246 18.6345 27.8298 18.0022 27.4652C17.3556 27.0935 16.8428 26.7274 16.6093 26.4939L14.7862 28.3169C15.2662 28.7954 16.0182 29.2968 16.7161 29.6984Z" fill="white"/>
</svg>
