<svg width="48" height="47" viewBox="0 0 48 47" fill="none" xmlns="http://www.w3.org/2000/svg">
<rect x="0.939453" width="47" height="47" rx="4" fill="#4B4F53"/>
<path d="M12.3335 22.788C12.3335 17.4172 12.3335 14.731 14.0027 13.0633C15.6705 11.394 18.3566 11.394 23.7274 11.394H26.5759C31.9467 11.394 34.6329 11.394 36.3006 13.0633C37.9699 14.731 37.9699 17.4172 37.9699 22.788V25.6365C37.9699 31.0073 37.9699 33.6934 36.3006 35.3612C34.6329 37.0304 31.9467 37.0304 26.5759 37.0304H23.7274C18.3566 37.0304 15.6705 37.0304 14.0027 35.3612C12.3335 33.6934 12.3335 31.0073 12.3335 25.6365V22.788Z" stroke="white" stroke-width="2"/>
<path d="M31.5607 19.9395C32.7406 19.9395 33.697 18.983 33.697 17.8031C33.697 16.6232 32.7406 15.6667 31.5607 15.6667C30.3808 15.6667 29.4243 16.6232 29.4243 17.8031C29.4243 18.983 30.3808 19.9395 31.5607 19.9395Z" fill="white"/>
<path d="M25.1516 28.4849C27.5114 28.4849 29.4244 26.5719 29.4244 24.2122C29.4244 21.8524 27.5114 19.9395 25.1516 19.9395C22.7919 19.9395 20.8789 21.8524 20.8789 24.2122C20.8789 26.5719 22.7919 28.4849 25.1516 28.4849Z" stroke="white" stroke-width="2"/>
</svg>
