<svg width="35" height="35" viewBox="0 0 35 35" fill="none" xmlns="http://www.w3.org/2000/svg">
<rect x="1.95215" y="1.95215" width="32" height="32" rx="10" fill="#24E7FF" stroke="white" stroke-width="2"/>
<path d="M9.07178 15.0862C9.07178 12.3705 11.2733 10.169 13.989 10.169H21.4723C24.188 10.169 26.3895 12.3705 26.3895 15.0862V22.5695C26.3895 25.2852 24.188 27.4867 21.4723 27.4867H13.989C11.2733 27.4867 9.07178 25.2852 9.07178 22.5695V15.0862Z" fill="black"/>
<path d="M10.9961 8.7947C10.9961 7.42837 12.1037 6.32074 13.4701 6.32074C14.8364 6.32074 15.944 7.42837 15.944 8.7947V10.5814C15.944 11.9478 14.8364 13.0554 13.4701 13.0554C12.1037 13.0554 10.9961 11.9478 10.9961 10.5814V8.7947Z" fill="black"/>
<path d="M19.2432 8.79446C19.2432 7.42813 20.3508 6.3205 21.7171 6.3205C23.0835 6.3205 24.1911 7.42813 24.1911 8.79446V10.5812C24.1911 11.9475 23.0835 13.0552 21.7171 13.0552C20.3508 13.0552 19.2432 11.9475 19.2432 10.5812V8.79446Z" fill="black"/>
<path d="M20.0674 25.5626C20.0674 24.3481 21.0519 23.3635 22.2665 23.3635C23.481 23.3635 24.4655 24.3481 24.4655 25.5626V27.8991C24.4655 29.1136 23.481 30.0982 22.2665 30.0982C21.0519 30.0982 20.0674 29.1136 20.0674 27.8991V25.5626Z" fill="black"/>
<path d="M11.5449 25.5627C11.5449 24.3482 12.5295 23.3636 13.744 23.3636C14.9585 23.3636 15.9431 24.3482 15.9431 25.5627V27.8992C15.9431 29.1138 14.9585 30.0983 13.744 30.0983C12.5295 30.0983 11.5449 29.1138 11.5449 27.8992V25.5627Z" fill="black"/>
<circle cx="14.5009" cy="18.6217" r="3.50478" fill="white"/>
<circle cx="14.6385" cy="18.0719" r="1.16826" fill="black"/>
<circle cx="20.9599" cy="18.6218" r="3.50478" fill="white"/>
<circle cx="20.9607" cy="18.0719" r="1.16826" fill="black"/>
<path d="M8.10986 15.8729C8.10986 14.6963 9.06365 13.7426 10.2402 13.7426H25.084C26.2605 13.7426 27.2143 14.6963 27.2143 15.8729C27.2143 17.0495 26.2605 18.0033 25.084 18.0033H10.2402C9.06365 18.0033 8.10986 17.0495 8.10986 15.8729Z" fill="#FF9900"/>
</svg>
